<svg xmlns="http://www.w3.org/2000/svg" xmlns:xlink="http://www.w3.org/1999/xlink" width="1920" zoomAndPan="magnify" viewBox="0 0 1440 749.999995" height="1000" preserveAspectRatio="xMidYMid meet" version="1.0"><defs><clipPath id="id1"><path d="M 0 0 L 769.5 0 L 769.5 39 L 0 39 Z M 0 0 " clip-rule="nonzero"/></clipPath><clipPath id="id2"><path d="M 0 41 L 769.5 41 L 769.5 80 L 0 80 Z M 0 41 " clip-rule="nonzero"/></clipPath><clipPath id="id3"><path d="M 0 83 L 769.5 83 L 769.5 122 L 0 122 Z M 0 83 " clip-rule="nonzero"/></clipPath><clipPath id="id4"><path d="M 0 125 L 769.5 125 L 769.5 164 L 0 164 Z M 0 125 " clip-rule="nonzero"/></clipPath><clipPath id="id5"><path d="M 0 167 L 769.5 167 L 769.5 206 L 0 206 Z M 0 167 " clip-rule="nonzero"/></clipPath><clipPath id="id6"><path d="M 0 209 L 769.5 209 L 769.5 248 L 0 248 Z M 0 209 " clip-rule="nonzero"/></clipPath><clipPath id="id7"><path d="M 0 251 L 769.5 251 L 769.5 290 L 0 290 Z M 0 251 " clip-rule="nonzero"/></clipPath><clipPath id="id8"><path d="M 0 293 L 769.5 293 L 769.5 332 L 0 332 Z M 0 293 " clip-rule="nonzero"/></clipPath><clipPath id="id9"><path d="M 0 335 L 769.5 335 L 769.5 374 L 0 374 Z M 0 335 " clip-rule="nonzero"/></clipPath><clipPath id="id10"><path d="M 0 376 L 769.5 376 L 769.5 415 L 0 415 Z M 0 376 " clip-rule="nonzero"/></clipPath><clipPath id="id11"><path d="M 0 418 L 769.5 418 L 769.5 457 L 0 457 Z M 0 418 " clip-rule="nonzero"/></clipPath><clipPath id="id12"><path d="M 0 460 L 769.5 460 L 769.5 499 L 0 499 Z M 0 460 " clip-rule="nonzero"/></clipPath><clipPath id="id13"><path d="M 0 502 L 769.5 502 L 769.5 541 L 0 541 Z M 0 502 " clip-rule="nonzero"/></clipPath><clipPath id="id14"><path d="M 0 544 L 769.5 544 L 769.5 583 L 0 583 Z M 0 544 " clip-rule="nonzero"/></clipPath><clipPath id="id15"><path d="M 0 586 L 769.5 586 L 769.5 625 L 0 625 Z M 0 586 " clip-rule="nonzero"/></clipPath><clipPath id="id16"><path d="M 0 628 L 769.5 628 L 769.5 667 L 0 667 Z M 0 628 " clip-rule="nonzero"/></clipPath><clipPath id="id17"><path d="M 0 670 L 769.5 670 L 769.5 709 L 0 709 Z M 0 670 " clip-rule="nonzero"/></clipPath><clipPath id="id18"><path d="M 0 711 L 769.5 711 L 769.5 750 L 0 750 Z M 0 711 " clip-rule="nonzero"/></clipPath><clipPath id="id19"><path d="M 769.339844 0 L 1440 0 L 1440 39 L 769.339844 39 Z M 769.339844 0 " clip-rule="nonzero"/></clipPath><clipPath id="id20"><path d="M 769.339844 41 L 1440 41 L 1440 80 L 769.339844 80 Z M 769.339844 41 " clip-rule="nonzero"/></clipPath><clipPath id="id21"><path d="M 769.339844 83 L 1440 83 L 1440 122 L 769.339844 122 Z M 769.339844 83 " clip-rule="nonzero"/></clipPath><clipPath id="id22"><path d="M 769.339844 125 L 1440 125 L 1440 164 L 769.339844 164 Z M 769.339844 125 " clip-rule="nonzero"/></clipPath><clipPath id="id23"><path d="M 769.339844 167 L 1440 167 L 1440 206 L 769.339844 206 Z M 769.339844 167 " clip-rule="nonzero"/></clipPath><clipPath id="id24"><path d="M 769.339844 209 L 1440 209 L 1440 248 L 769.339844 248 Z M 769.339844 209 " clip-rule="nonzero"/></clipPath><clipPath id="id25"><path d="M 769.339844 251 L 1440 251 L 1440 290 L 769.339844 290 Z M 769.339844 251 " clip-rule="nonzero"/></clipPath><clipPath id="id26"><path d="M 769.339844 293 L 1440 293 L 1440 332 L 769.339844 332 Z M 769.339844 293 " clip-rule="nonzero"/></clipPath><clipPath id="id27"><path d="M 769.339844 335 L 1440 335 L 1440 374 L 769.339844 374 Z M 769.339844 335 " clip-rule="nonzero"/></clipPath><clipPath id="id28"><path d="M 769.339844 376 L 1440 376 L 1440 415 L 769.339844 415 Z M 769.339844 376 " clip-rule="nonzero"/></clipPath><clipPath id="id29"><path d="M 769.339844 418 L 1440 418 L 1440 457 L 769.339844 457 Z M 769.339844 418 " clip-rule="nonzero"/></clipPath><clipPath id="id30"><path d="M 769.339844 460 L 1440 460 L 1440 499 L 769.339844 499 Z M 769.339844 460 " clip-rule="nonzero"/></clipPath><clipPath id="id31"><path d="M 769.339844 502 L 1440 502 L 1440 541 L 769.339844 541 Z M 769.339844 502 " clip-rule="nonzero"/></clipPath><clipPath id="id32"><path d="M 769.339844 544 L 1440 544 L 1440 583 L 769.339844 583 Z M 769.339844 544 " clip-rule="nonzero"/></clipPath><clipPath id="id33"><path d="M 769.339844 586 L 1440 586 L 1440 625 L 769.339844 625 Z M 769.339844 586 " clip-rule="nonzero"/></clipPath><clipPath id="id34"><path d="M 769.339844 628 L 1440 628 L 1440 667 L 769.339844 667 Z M 769.339844 628 " clip-rule="nonzero"/></clipPath><clipPath id="id35"><path d="M 769.339844 670 L 1440 670 L 1440 709 L 769.339844 709 Z M 769.339844 670 " clip-rule="nonzero"/></clipPath><clipPath id="id36"><path d="M 769.339844 711 L 1440 711 L 1440 750 L 769.339844 750 Z M 769.339844 711 " clip-rule="nonzero"/></clipPath></defs><g clip-path="url(#id1)"><path fill="#ffffff" d="M 691.527344 38.035156 L 614.835938 5.820312 L 538.144531 38.035156 L 461.453125 5.820312 L 384.761719 38.035156 L 308.070312 5.820312 L 231.378906 38.035156 L 154.6875 5.820312 L 78.003906 38.035156 L 0.273438 5.390625 L 2.355469 0.441406 L 78.003906 32.214844 L 154.6875 0 L 231.378906 32.214844 L 308.070312 0 L 384.761719 32.214844 L 461.453125 0 L 538.144531 32.214844 L 614.835938 0 L 691.527344 32.214844 L 767.1875 0.441406 L 769.269531 5.390625 Z M 691.527344 38.035156 " fill-opacity="1" fill-rule="nonzero"/></g><g clip-path="url(#id2)"><path fill="#ffffff" d="M 691.527344 79.917969 L 614.835938 47.703125 L 538.144531 79.917969 L 461.453125 47.703125 L 384.761719 79.917969 L 308.070312 47.703125 L 231.378906 79.917969 L 154.6875 47.703125 L 78.003906 79.917969 L 0.273438 47.273438 L 2.355469 42.320312 L 78.003906 74.097656 L 154.6875 41.882812 L 231.378906 74.097656 L 308.070312 41.882812 L 384.761719 74.097656 L 461.453125 41.882812 L 538.144531 74.097656 L 614.835938 41.882812 L 691.527344 74.097656 L 767.1875 42.320312 L 769.269531 47.273438 Z M 691.527344 79.917969 " fill-opacity="1" fill-rule="nonzero"/></g><g clip-path="url(#id3)"><path fill="#ffffff" d="M 691.527344 121.800781 L 614.835938 89.582031 L 538.144531 121.800781 L 461.453125 89.582031 L 384.761719 121.800781 L 308.070312 89.582031 L 231.378906 121.800781 L 154.6875 89.582031 L 78.003906 121.800781 L 0.273438 89.152344 L 2.355469 84.203125 L 78.003906 115.980469 L 154.6875 83.761719 L 231.378906 115.980469 L 308.070312 83.761719 L 384.761719 115.980469 L 461.453125 83.761719 L 538.144531 115.980469 L 614.835938 83.761719 L 691.527344 115.980469 L 767.1875 84.203125 L 769.269531 89.152344 Z M 691.527344 121.800781 " fill-opacity="1" fill-rule="nonzero"/></g><g clip-path="url(#id4)"><path fill="#ffffff" d="M 691.527344 163.679688 L 614.835938 131.464844 L 538.144531 163.679688 L 461.453125 131.464844 L 384.761719 163.679688 L 308.070312 131.464844 L 231.378906 163.679688 L 154.6875 131.464844 L 78.003906 163.679688 L 0.273438 131.035156 L 2.355469 126.085938 L 78.003906 157.859375 L 154.6875 125.644531 L 231.378906 157.859375 L 308.070312 125.644531 L 384.761719 157.859375 L 461.453125 125.644531 L 538.144531 157.859375 L 614.835938 125.644531 L 691.527344 157.859375 L 767.1875 126.085938 L 769.269531 131.035156 Z M 691.527344 163.679688 " fill-opacity="1" fill-rule="nonzero"/></g><g clip-path="url(#id5)"><path fill="#ffffff" d="M 691.527344 205.5625 L 614.835938 173.347656 L 538.144531 205.5625 L 461.453125 173.347656 L 384.761719 205.5625 L 308.070312 173.347656 L 231.378906 205.5625 L 154.6875 173.347656 L 78.003906 205.5625 L 0.273438 172.917969 L 2.355469 167.964844 L 78.003906 199.742188 L 154.6875 167.527344 L 231.378906 199.742188 L 308.070312 167.527344 L 384.761719 199.742188 L 461.453125 167.527344 L 538.144531 199.742188 L 614.835938 167.527344 L 691.527344 199.742188 L 767.1875 167.964844 L 769.269531 172.917969 Z M 691.527344 205.5625 " fill-opacity="1" fill-rule="nonzero"/></g><g clip-path="url(#id6)"><path fill="#ffffff" d="M 691.527344 247.445312 L 614.835938 215.226562 L 538.144531 247.445312 L 461.453125 215.226562 L 384.761719 247.445312 L 308.070312 215.226562 L 231.378906 247.445312 L 154.6875 215.226562 L 78.003906 247.445312 L 0.273438 214.796875 L 2.355469 209.847656 L 78.003906 241.625 L 154.6875 209.40625 L 231.378906 241.625 L 308.070312 209.40625 L 384.761719 241.625 L 461.453125 209.40625 L 538.144531 241.625 L 614.835938 209.40625 L 691.527344 241.625 L 767.1875 209.847656 L 769.269531 214.796875 Z M 691.527344 247.445312 " fill-opacity="1" fill-rule="nonzero"/></g><g clip-path="url(#id7)"><path fill="#ffffff" d="M 691.527344 289.324219 L 614.835938 257.109375 L 538.144531 289.324219 L 461.453125 257.109375 L 384.761719 289.324219 L 308.070312 257.109375 L 231.378906 289.324219 L 154.6875 257.109375 L 78.003906 289.324219 L 0.273438 256.679688 L 2.355469 251.730469 L 78.003906 283.503906 L 154.6875 251.289062 L 231.378906 283.503906 L 308.070312 251.289062 L 384.761719 283.503906 L 461.453125 251.289062 L 538.144531 283.503906 L 614.835938 251.289062 L 691.527344 283.503906 L 767.1875 251.730469 L 769.269531 256.679688 Z M 691.527344 289.324219 " fill-opacity="1" fill-rule="nonzero"/></g><g clip-path="url(#id8)"><path fill="#ffffff" d="M 691.527344 331.207031 L 614.835938 298.992188 L 538.144531 331.207031 L 461.453125 298.992188 L 384.761719 331.207031 L 308.070312 298.992188 L 231.378906 331.207031 L 154.6875 298.992188 L 78.003906 331.207031 L 0.273438 298.5625 L 2.355469 293.609375 L 78.003906 325.386719 L 154.6875 293.171875 L 231.378906 325.386719 L 308.070312 293.171875 L 384.761719 325.386719 L 461.453125 293.171875 L 538.144531 325.386719 L 614.835938 293.171875 L 691.527344 325.386719 L 767.1875 293.609375 L 769.269531 298.5625 Z M 691.527344 331.207031 " fill-opacity="1" fill-rule="nonzero"/></g><g clip-path="url(#id9)"><path fill="#ffffff" d="M 691.527344 373.089844 L 614.835938 340.871094 L 538.144531 373.089844 L 461.453125 340.871094 L 384.761719 373.089844 L 308.070312 340.871094 L 231.378906 373.089844 L 154.6875 340.871094 L 78.003906 373.089844 L 0.273438 340.441406 L 2.355469 335.492188 L 78.003906 367.269531 L 154.6875 335.050781 L 231.378906 367.269531 L 308.070312 335.050781 L 384.761719 367.269531 L 461.453125 335.050781 L 538.144531 367.269531 L 614.835938 335.050781 L 691.527344 367.269531 L 767.1875 335.492188 L 769.269531 340.441406 Z M 691.527344 373.089844 " fill-opacity="1" fill-rule="nonzero"/></g><g clip-path="url(#id10)"><path fill="#ffffff" d="M 691.527344 414.96875 L 614.835938 382.753906 L 538.144531 414.96875 L 461.453125 382.753906 L 384.761719 414.96875 L 308.070312 382.753906 L 231.378906 414.96875 L 154.6875 382.753906 L 78.003906 414.96875 L 0.273438 382.324219 L 2.355469 377.375 L 78.003906 409.148438 L 154.6875 376.933594 L 231.378906 409.148438 L 308.070312 376.933594 L 384.761719 409.148438 L 461.453125 376.933594 L 538.144531 409.148438 L 614.835938 376.933594 L 691.527344 409.148438 L 767.1875 377.375 L 769.269531 382.324219 Z M 691.527344 414.96875 " fill-opacity="1" fill-rule="nonzero"/></g><g clip-path="url(#id11)"><path fill="#ffffff" d="M 691.527344 456.851562 L 614.835938 424.636719 L 538.144531 456.851562 L 461.453125 424.636719 L 384.761719 456.851562 L 308.070312 424.636719 L 231.378906 456.851562 L 154.6875 424.636719 L 78.003906 456.851562 L 0.273438 424.207031 L 2.355469 419.253906 L 78.003906 451.03125 L 154.6875 418.8125 L 231.378906 451.03125 L 308.070312 418.8125 L 384.761719 451.03125 L 461.453125 418.8125 L 538.144531 451.03125 L 614.835938 418.8125 L 691.527344 451.03125 L 767.1875 419.253906 L 769.269531 424.207031 Z M 691.527344 456.851562 " fill-opacity="1" fill-rule="nonzero"/></g><g clip-path="url(#id12)"><path fill="#ffffff" d="M 691.527344 498.734375 L 614.835938 466.515625 L 538.144531 498.734375 L 461.453125 466.515625 L 384.761719 498.734375 L 308.070312 466.515625 L 231.378906 498.734375 L 154.6875 466.515625 L 78.003906 498.734375 L 0.273438 466.085938 L 2.355469 461.136719 L 78.003906 492.914062 L 154.6875 460.695312 L 231.378906 492.914062 L 308.070312 460.695312 L 384.761719 492.914062 L 461.453125 460.695312 L 538.144531 492.914062 L 614.835938 460.695312 L 691.527344 492.914062 L 767.1875 461.136719 L 769.269531 466.085938 Z M 691.527344 498.734375 " fill-opacity="1" fill-rule="nonzero"/></g><g clip-path="url(#id13)"><path fill="#ffffff" d="M 691.527344 540.613281 L 614.835938 508.398438 L 538.144531 540.613281 L 461.453125 508.398438 L 384.761719 540.613281 L 308.070312 508.398438 L 231.378906 540.613281 L 154.6875 508.398438 L 78.003906 540.613281 L 0.273438 507.96875 L 2.355469 503.019531 L 78.003906 534.792969 L 154.6875 502.578125 L 231.378906 534.792969 L 308.070312 502.578125 L 384.761719 534.792969 L 461.453125 502.578125 L 538.144531 534.792969 L 614.835938 502.578125 L 691.527344 534.792969 L 767.1875 503.019531 L 769.269531 507.96875 Z M 691.527344 540.613281 " fill-opacity="1" fill-rule="nonzero"/></g><g clip-path="url(#id14)"><path fill="#ffffff" d="M 691.527344 582.496094 L 614.835938 550.277344 L 538.144531 582.496094 L 461.453125 550.277344 L 384.761719 582.496094 L 308.070312 550.277344 L 231.378906 582.496094 L 154.6875 550.277344 L 78.003906 582.496094 L 0.273438 549.851562 L 2.355469 544.898438 L 78.003906 576.675781 L 154.6875 544.457031 L 231.378906 576.675781 L 308.070312 544.457031 L 384.761719 576.675781 L 461.453125 544.457031 L 538.144531 576.675781 L 614.835938 544.457031 L 691.527344 576.675781 L 767.1875 544.898438 L 769.269531 549.851562 Z M 691.527344 582.496094 " fill-opacity="1" fill-rule="nonzero"/></g><g clip-path="url(#id15)"><path fill="#ffffff" d="M 691.527344 624.378906 L 614.835938 592.160156 L 538.144531 624.378906 L 461.453125 592.160156 L 384.761719 624.378906 L 308.070312 592.160156 L 231.378906 624.378906 L 154.6875 592.160156 L 78.003906 624.378906 L 0.273438 591.730469 L 2.355469 586.78125 L 78.003906 618.558594 L 154.6875 586.339844 L 231.378906 618.558594 L 308.070312 586.339844 L 384.761719 618.558594 L 461.453125 586.339844 L 538.144531 618.558594 L 614.835938 586.339844 L 691.527344 618.558594 L 767.1875 586.78125 L 769.269531 591.730469 Z M 691.527344 624.378906 " fill-opacity="1" fill-rule="nonzero"/></g><g clip-path="url(#id16)"><path fill="#ffffff" d="M 691.527344 666.257812 L 614.835938 634.042969 L 538.144531 666.257812 L 461.453125 634.042969 L 384.761719 666.257812 L 308.070312 634.042969 L 231.378906 666.257812 L 154.6875 634.042969 L 78.003906 666.257812 L 0.273438 633.613281 L 2.355469 628.660156 L 78.003906 660.4375 L 154.6875 628.222656 L 231.378906 660.4375 L 308.070312 628.222656 L 384.761719 660.4375 L 461.453125 628.222656 L 538.144531 660.4375 L 614.835938 628.222656 L 691.527344 660.4375 L 767.1875 628.660156 L 769.269531 633.613281 Z M 691.527344 666.257812 " fill-opacity="1" fill-rule="nonzero"/></g><g clip-path="url(#id17)"><path fill="#ffffff" d="M 691.527344 708.140625 L 614.835938 675.921875 L 538.144531 708.140625 L 461.453125 675.921875 L 384.761719 708.140625 L 308.070312 675.921875 L 231.378906 708.140625 L 154.6875 675.921875 L 78.003906 708.140625 L 0.273438 675.492188 L 2.355469 670.542969 L 78.003906 702.320312 L 154.6875 670.101562 L 231.378906 702.320312 L 308.070312 670.101562 L 384.761719 702.320312 L 461.453125 670.101562 L 538.144531 702.320312 L 614.835938 670.101562 L 691.527344 702.320312 L 767.1875 670.542969 L 769.269531 675.492188 Z M 691.527344 708.140625 " fill-opacity="1" fill-rule="nonzero"/></g><g clip-path="url(#id18)"><path fill="#ffffff" d="M 691.527344 750.019531 L 614.835938 717.804688 L 538.144531 750.019531 L 461.453125 717.804688 L 384.761719 750.019531 L 308.070312 717.804688 L 231.378906 750.019531 L 154.6875 717.804688 L 78.003906 750.019531 L 0.273438 717.375 L 2.355469 712.425781 L 78.003906 744.199219 L 154.6875 711.984375 L 231.378906 744.199219 L 308.070312 711.984375 L 384.761719 744.199219 L 461.453125 711.984375 L 538.144531 744.199219 L 614.835938 711.984375 L 691.527344 744.199219 L 767.1875 712.425781 L 769.269531 717.375 Z M 691.527344 750.019531 " fill-opacity="1" fill-rule="nonzero"/></g><g clip-path="url(#id19)"><path fill="#ffffff" d="M 1460.867188 38.035156 L 1384.175781 5.820312 L 1307.484375 38.035156 L 1230.792969 5.820312 L 1154.101562 38.035156 L 1077.410156 5.820312 L 1000.71875 38.035156 L 924.027344 5.820312 L 847.347656 38.035156 L 769.613281 5.390625 L 771.695312 0.441406 L 847.347656 32.214844 L 924.027344 0 L 1000.71875 32.214844 L 1077.410156 0 L 1154.101562 32.214844 L 1230.792969 0 L 1307.484375 32.214844 L 1384.175781 0 L 1460.867188 32.214844 L 1536.527344 0.441406 L 1538.613281 5.390625 Z M 1460.867188 38.035156 " fill-opacity="1" fill-rule="nonzero"/></g><g clip-path="url(#id20)"><path fill="#ffffff" d="M 1460.867188 79.917969 L 1384.175781 47.703125 L 1307.484375 79.917969 L 1230.792969 47.703125 L 1154.101562 79.917969 L 1077.410156 47.703125 L 1000.71875 79.917969 L 924.027344 47.703125 L 847.347656 79.917969 L 769.613281 47.273438 L 771.695312 42.320312 L 847.347656 74.097656 L 924.027344 41.882812 L 1000.71875 74.097656 L 1077.410156 41.882812 L 1154.101562 74.097656 L 1230.792969 41.882812 L 1307.484375 74.097656 L 1384.175781 41.882812 L 1460.867188 74.097656 L 1536.527344 42.320312 L 1538.613281 47.273438 Z M 1460.867188 79.917969 " fill-opacity="1" fill-rule="nonzero"/></g><g clip-path="url(#id21)"><path fill="#ffffff" d="M 1460.867188 121.800781 L 1384.175781 89.582031 L 1307.484375 121.800781 L 1230.792969 89.582031 L 1154.101562 121.800781 L 1077.410156 89.582031 L 1000.71875 121.800781 L 924.027344 89.582031 L 847.347656 121.800781 L 769.613281 89.152344 L 771.695312 84.203125 L 847.347656 115.980469 L 924.027344 83.761719 L 1000.71875 115.980469 L 1077.410156 83.761719 L 1154.101562 115.980469 L 1230.792969 83.761719 L 1307.484375 115.980469 L 1384.175781 83.761719 L 1460.867188 115.980469 L 1536.527344 84.203125 L 1538.613281 89.152344 Z M 1460.867188 121.800781 " fill-opacity="1" fill-rule="nonzero"/></g><g clip-path="url(#id22)"><path fill="#ffffff" d="M 1460.867188 163.679688 L 1384.175781 131.464844 L 1307.484375 163.679688 L 1230.792969 131.464844 L 1154.101562 163.679688 L 1077.410156 131.464844 L 1000.71875 163.679688 L 924.027344 131.464844 L 847.347656 163.679688 L 769.613281 131.035156 L 771.695312 126.085938 L 847.347656 157.859375 L 924.027344 125.644531 L 1000.71875 157.859375 L 1077.410156 125.644531 L 1154.101562 157.859375 L 1230.792969 125.644531 L 1307.484375 157.859375 L 1384.175781 125.644531 L 1460.867188 157.859375 L 1536.527344 126.085938 L 1538.613281 131.035156 Z M 1460.867188 163.679688 " fill-opacity="1" fill-rule="nonzero"/></g><g clip-path="url(#id23)"><path fill="#ffffff" d="M 1460.867188 205.5625 L 1384.175781 173.347656 L 1307.484375 205.5625 L 1230.792969 173.347656 L 1154.101562 205.5625 L 1077.410156 173.347656 L 1000.71875 205.5625 L 924.027344 173.347656 L 847.347656 205.5625 L 769.613281 172.917969 L 771.695312 167.964844 L 847.347656 199.742188 L 924.027344 167.527344 L 1000.71875 199.742188 L 1077.410156 167.527344 L 1154.101562 199.742188 L 1230.792969 167.527344 L 1307.484375 199.742188 L 1384.175781 167.527344 L 1460.867188 199.742188 L 1536.527344 167.964844 L 1538.613281 172.917969 Z M 1460.867188 205.5625 " fill-opacity="1" fill-rule="nonzero"/></g><g clip-path="url(#id24)"><path fill="#ffffff" d="M 1460.867188 247.445312 L 1384.175781 215.226562 L 1307.484375 247.445312 L 1230.792969 215.226562 L 1154.101562 247.445312 L 1077.410156 215.226562 L 1000.71875 247.445312 L 924.027344 215.226562 L 847.347656 247.445312 L 769.613281 214.796875 L 771.695312 209.847656 L 847.347656 241.625 L 924.027344 209.40625 L 1000.71875 241.625 L 1077.410156 209.40625 L 1154.101562 241.625 L 1230.792969 209.40625 L 1307.484375 241.625 L 1384.175781 209.40625 L 1460.867188 241.625 L 1536.527344 209.847656 L 1538.613281 214.796875 Z M 1460.867188 247.445312 " fill-opacity="1" fill-rule="nonzero"/></g><g clip-path="url(#id25)"><path fill="#ffffff" d="M 1460.867188 289.324219 L 1384.175781 257.109375 L 1307.484375 289.324219 L 1230.792969 257.109375 L 1154.101562 289.324219 L 1077.410156 257.109375 L 1000.71875 289.324219 L 924.027344 257.109375 L 847.347656 289.324219 L 769.613281 256.679688 L 771.695312 251.730469 L 847.347656 283.503906 L 924.027344 251.289062 L 1000.71875 283.503906 L 1077.410156 251.289062 L 1154.101562 283.503906 L 1230.792969 251.289062 L 1307.484375 283.503906 L 1384.175781 251.289062 L 1460.867188 283.503906 L 1536.527344 251.730469 L 1538.613281 256.679688 Z M 1460.867188 289.324219 " fill-opacity="1" fill-rule="nonzero"/></g><g clip-path="url(#id26)"><path fill="#ffffff" d="M 1460.867188 331.207031 L 1384.175781 298.992188 L 1307.484375 331.207031 L 1230.792969 298.992188 L 1154.101562 331.207031 L 1077.410156 298.992188 L 1000.71875 331.207031 L 924.027344 298.992188 L 847.347656 331.207031 L 769.613281 298.5625 L 771.695312 293.609375 L 847.347656 325.386719 L 924.027344 293.171875 L 1000.71875 325.386719 L 1077.410156 293.171875 L 1154.101562 325.386719 L 1230.792969 293.171875 L 1307.484375 325.386719 L 1384.175781 293.171875 L 1460.867188 325.386719 L 1536.527344 293.609375 L 1538.613281 298.5625 Z M 1460.867188 331.207031 " fill-opacity="1" fill-rule="nonzero"/></g><g clip-path="url(#id27)"><path fill="#ffffff" d="M 1460.867188 373.089844 L 1384.175781 340.871094 L 1307.484375 373.089844 L 1230.792969 340.871094 L 1154.101562 373.089844 L 1077.410156 340.871094 L 1000.71875 373.089844 L 924.027344 340.871094 L 847.347656 373.089844 L 769.613281 340.441406 L 771.695312 335.492188 L 847.347656 367.269531 L 924.027344 335.050781 L 1000.71875 367.269531 L 1077.410156 335.050781 L 1154.101562 367.269531 L 1230.792969 335.050781 L 1307.484375 367.269531 L 1384.175781 335.050781 L 1460.867188 367.269531 L 1536.527344 335.492188 L 1538.613281 340.441406 Z M 1460.867188 373.089844 " fill-opacity="1" fill-rule="nonzero"/></g><g clip-path="url(#id28)"><path fill="#ffffff" d="M 1460.867188 414.96875 L 1384.175781 382.753906 L 1307.484375 414.96875 L 1230.792969 382.753906 L 1154.101562 414.96875 L 1077.410156 382.753906 L 1000.71875 414.96875 L 924.027344 382.753906 L 847.347656 414.96875 L 769.613281 382.324219 L 771.695312 377.375 L 847.347656 409.148438 L 924.027344 376.933594 L 1000.71875 409.148438 L 1077.410156 376.933594 L 1154.101562 409.148438 L 1230.792969 376.933594 L 1307.484375 409.148438 L 1384.175781 376.933594 L 1460.867188 409.148438 L 1536.527344 377.375 L 1538.613281 382.324219 Z M 1460.867188 414.96875 " fill-opacity="1" fill-rule="nonzero"/></g><g clip-path="url(#id29)"><path fill="#ffffff" d="M 1460.867188 456.851562 L 1384.175781 424.636719 L 1307.484375 456.851562 L 1230.792969 424.636719 L 1154.101562 456.851562 L 1077.410156 424.636719 L 1000.71875 456.851562 L 924.027344 424.636719 L 847.347656 456.851562 L 769.613281 424.207031 L 771.695312 419.253906 L 847.347656 451.03125 L 924.027344 418.8125 L 1000.71875 451.03125 L 1077.410156 418.8125 L 1154.101562 451.03125 L 1230.792969 418.8125 L 1307.484375 451.03125 L 1384.175781 418.8125 L 1460.867188 451.03125 L 1536.527344 419.253906 L 1538.613281 424.207031 Z M 1460.867188 456.851562 " fill-opacity="1" fill-rule="nonzero"/></g><g clip-path="url(#id30)"><path fill="#ffffff" d="M 1460.867188 498.734375 L 1384.175781 466.515625 L 1307.484375 498.734375 L 1230.792969 466.515625 L 1154.101562 498.734375 L 1077.410156 466.515625 L 1000.71875 498.734375 L 924.027344 466.515625 L 847.347656 498.734375 L 769.613281 466.085938 L 771.695312 461.136719 L 847.347656 492.914062 L 924.027344 460.695312 L 1000.71875 492.914062 L 1077.410156 460.695312 L 1154.101562 492.914062 L 1230.792969 460.695312 L 1307.484375 492.914062 L 1384.175781 460.695312 L 1460.867188 492.914062 L 1536.527344 461.136719 L 1538.613281 466.085938 Z M 1460.867188 498.734375 " fill-opacity="1" fill-rule="nonzero"/></g><g clip-path="url(#id31)"><path fill="#ffffff" d="M 1460.867188 540.613281 L 1384.175781 508.398438 L 1307.484375 540.613281 L 1230.792969 508.398438 L 1154.101562 540.613281 L 1077.410156 508.398438 L 1000.71875 540.613281 L 924.027344 508.398438 L 847.347656 540.613281 L 769.613281 507.96875 L 771.695312 503.019531 L 847.347656 534.792969 L 924.027344 502.578125 L 1000.71875 534.792969 L 1077.410156 502.578125 L 1154.101562 534.792969 L 1230.792969 502.578125 L 1307.484375 534.792969 L 1384.175781 502.578125 L 1460.867188 534.792969 L 1536.527344 503.019531 L 1538.613281 507.96875 Z M 1460.867188 540.613281 " fill-opacity="1" fill-rule="nonzero"/></g><g clip-path="url(#id32)"><path fill="#ffffff" d="M 1460.867188 582.496094 L 1384.175781 550.277344 L 1307.484375 582.496094 L 1230.792969 550.277344 L 1154.101562 582.496094 L 1077.410156 550.277344 L 1000.71875 582.496094 L 924.027344 550.277344 L 847.347656 582.496094 L 769.613281 549.851562 L 771.695312 544.898438 L 847.347656 576.675781 L 924.027344 544.457031 L 1000.71875 576.675781 L 1077.410156 544.457031 L 1154.101562 576.675781 L 1230.792969 544.457031 L 1307.484375 576.675781 L 1384.175781 544.457031 L 1460.867188 576.675781 L 1536.527344 544.898438 L 1538.613281 549.851562 Z M 1460.867188 582.496094 " fill-opacity="1" fill-rule="nonzero"/></g><g clip-path="url(#id33)"><path fill="#ffffff" d="M 1460.867188 624.378906 L 1384.175781 592.160156 L 1307.484375 624.378906 L 1230.792969 592.160156 L 1154.101562 624.378906 L 1077.410156 592.160156 L 1000.71875 624.378906 L 924.027344 592.160156 L 847.347656 624.378906 L 769.613281 591.730469 L 771.695312 586.78125 L 847.347656 618.558594 L 924.027344 586.339844 L 1000.71875 618.558594 L 1077.410156 586.339844 L 1154.101562 618.558594 L 1230.792969 586.339844 L 1307.484375 618.558594 L 1384.175781 586.339844 L 1460.867188 618.558594 L 1536.527344 586.78125 L 1538.613281 591.730469 Z M 1460.867188 624.378906 " fill-opacity="1" fill-rule="nonzero"/></g><g clip-path="url(#id34)"><path fill="#ffffff" d="M 1460.867188 666.257812 L 1384.175781 634.042969 L 1307.484375 666.257812 L 1230.792969 634.042969 L 1154.101562 666.257812 L 1077.410156 634.042969 L 1000.71875 666.257812 L 924.027344 634.042969 L 847.347656 666.257812 L 769.613281 633.613281 L 771.695312 628.660156 L 847.347656 660.4375 L 924.027344 628.222656 L 1000.71875 660.4375 L 1077.410156 628.222656 L 1154.101562 660.4375 L 1230.792969 628.222656 L 1307.484375 660.4375 L 1384.175781 628.222656 L 1460.867188 660.4375 L 1536.527344 628.660156 L 1538.613281 633.613281 Z M 1460.867188 666.257812 " fill-opacity="1" fill-rule="nonzero"/></g><g clip-path="url(#id35)"><path fill="#ffffff" d="M 1460.867188 708.140625 L 1384.175781 675.921875 L 1307.484375 708.140625 L 1230.792969 675.921875 L 1154.101562 708.140625 L 1077.410156 675.921875 L 1000.71875 708.140625 L 924.027344 675.921875 L 847.347656 708.140625 L 769.613281 675.492188 L 771.695312 670.542969 L 847.347656 702.320312 L 924.027344 670.101562 L 1000.71875 702.320312 L 1077.410156 670.101562 L 1154.101562 702.320312 L 1230.792969 670.101562 L 1307.484375 702.320312 L 1384.175781 670.101562 L 1460.867188 702.320312 L 1536.527344 670.542969 L 1538.613281 675.492188 Z M 1460.867188 708.140625 " fill-opacity="1" fill-rule="nonzero"/></g><g clip-path="url(#id36)"><path fill="#ffffff" d="M 1460.867188 750.019531 L 1384.175781 717.804688 L 1307.484375 750.019531 L 1230.792969 717.804688 L 1154.101562 750.019531 L 1077.410156 717.804688 L 1000.71875 750.019531 L 924.027344 717.804688 L 847.347656 750.019531 L 769.613281 717.375 L 771.695312 712.425781 L 847.347656 744.199219 L 924.027344 711.984375 L 1000.71875 744.199219 L 1077.410156 711.984375 L 1154.101562 744.199219 L 1230.792969 711.984375 L 1307.484375 744.199219 L 1384.175781 711.984375 L 1460.867188 744.199219 L 1536.527344 712.425781 L 1538.613281 717.375 Z M 1460.867188 750.019531 " fill-opacity="1" fill-rule="nonzero"/></g></svg>